<?xml version="1.0" encoding="utf-8"?>
<!-- Generator: Adobe Illustrator 21.0.0, SVG Export Plug-In . SVG Version: 6.00 Build 0)  -->
<svg version="1.1" id="Layer_1" xmlns="http://www.w3.org/2000/svg" xmlns:xlink="http://www.w3.org/1999/xlink" x="0px" y="0px"
	 viewBox="0 0 350 350" style="enable-background:new 0 0 350 350;" xml:space="preserve">
<style type="text/css">
	.st0{fill:#332943;}
	.st1{fill:#6F5F85;}
	.st2{fill:#77C0D5;}
	.st3{fill:#ECF4ED;}
</style>
<g>
	<g>
		<path class="st0" d="M239.6,113.1h-132l1.1-3.4c0.2-0.5,4.4-13.5,14.5-26.6c13.5-17.6,30.9-26.9,50.4-26.9
			c19.5,0,37,9.3,50.4,26.9c10.1,13.1,14.3,26.1,14.5,26.6L239.6,113.1z M114.8,108h117.4c-1.9-4.6-5.9-13.3-12.5-21.8
			c-12.6-16.4-28.2-24.7-46.2-24.7s-33.6,8.3-46.2,24.7C120.8,94.7,116.7,103.3,114.8,108z"/>
	</g>
	<g>
		<path class="st1" d="M147.3,77.7c-0.8,0-1.5-0.4-2.1-1c-0.9-1.1-0.6-2.7,0.5-3.6c1.4-1.1,2.8-2,4.3-3c1.2-0.8,2.8-0.4,3.5,0.8
			c0.8,1.2,0.4,2.8-0.8,3.5c-1.3,0.8-2.6,1.7-3.9,2.7C148.4,77.6,147.9,77.7,147.3,77.7z"/>
	</g>
	<g>
		<path class="st1" d="M127.3,103.1c-0.4,0-0.7-0.1-1.1-0.2c-1.3-0.6-1.8-2.1-1.2-3.4c2.3-5,6.5-12.5,13.2-19.5c1-1,2.6-1.1,3.6-0.1
			c1,1,1.1,2.6,0.1,3.6c-6.2,6.5-10.1,13.5-12.3,18.2C129.2,102.6,128.3,103.1,127.3,103.1z"/>
	</g>
	<g>
		<g>
			<path class="st0" d="M173.6,98.1c-7.3,0-13.3-6-13.3-13.3c0-7.3,6-13.3,13.3-13.3c7.3,0,13.3,6,13.3,13.3
				C186.9,92.1,180.9,98.1,173.6,98.1z M173.6,76.6c-4.5,0-8.2,3.7-8.2,8.2c0,4.5,3.7,8.2,8.2,8.2c4.5,0,8.2-3.7,8.2-8.2
				C181.7,80.3,178.1,76.6,173.6,76.6z"/>
		</g>
		<g>
			<circle class="st2" cx="175.2" cy="84.8" r="3.9"/>
		</g>
	</g>
	<g>
		<path class="st0" d="M227.8,232.2H119.3L101.4,108h144.3L227.8,232.2z M123.8,227.1h99.5l16.4-114H107.4L123.8,227.1z"/>
	</g>
	<g>
		<g>
			<path class="st0" d="M128.9,243.1c-0.3,0-0.5,0-0.8-0.1c-1.3-0.5-2.1-1.9-1.6-3.3l3.6-10.9c0.5-1.3,1.9-2.1,3.3-1.6
				c1.3,0.5,2.1,1.9,1.6,3.3l-3.6,10.9C131,242.4,130,243.1,128.9,243.1z"/>
		</g>
		<g>
			<path class="st0" d="M218.2,243.1c-1.1,0-2.1-0.7-2.4-1.8l-3.6-10.9c-0.5-1.3,0.3-2.8,1.6-3.3c1.3-0.5,2.8,0.3,3.3,1.6l3.6,10.9
				c0.5,1.3-0.3,2.8-1.6,3.3C218.8,243,218.5,243.1,218.2,243.1z"/>
		</g>
		<g>
			<path class="st0" d="M170.5,248.7c0,0-0.1,0-0.1,0c-1.4-0.1-2.5-1.3-2.4-2.7l0.9-16.5c0.1-1.4,1.3-2.5,2.7-2.4
				c1.4,0.1,2.5,1.3,2.4,2.7l-0.9,16.5C173,247.6,171.9,248.7,170.5,248.7z"/>
		</g>
	</g>
	<g>
		<g>
			<path class="st0" d="M173.5,60.2c-0.3,0-0.6,0-0.9-0.2c-1.3-0.5-2-2-1.6-3.3l2.5-6.8l-8.4,0.8l6.9-15.5c0.6-1.3,2.1-1.9,3.4-1.3
				c1.3,0.6,1.9,2.1,1.3,3.4l-3.3,7.4l7.7-0.7l-5.2,14.5C175.5,59.6,174.5,60.2,173.5,60.2z"/>
		</g>
	</g>
	<g>
		<path class="st0" d="M204.8,131.9h-63.1V108h63.1V131.9z M146.9,126.7h52.8v-13.6h-52.8V126.7z"/>
	</g>
	<g>
		<g>
			<rect x="155.8" y="110.5" class="st0" width="5.2" height="18.7"/>
		</g>
		<g>
			<rect x="170.7" y="110.5" class="st0" width="5.2" height="18.7"/>
		</g>
		<g>
			<rect x="185.6" y="110.5" class="st0" width="5.2" height="18.7"/>
		</g>
	</g>
	<g>
		<g>
			<circle class="st0" cx="160.4" cy="165.1" r="3.4"/>
		</g>
		<g>
			<circle class="st0" cx="160.4" cy="175" r="3.4"/>
		</g>
		<g>
			<path class="st0" d="M190.1,178.4h-19.5c-1.2,0-2.1-1-2.1-2.1v-12.3c0-1.2,1-2.1,2.1-2.1h19.5c1.2,0,2.1,1,2.1,2.1v12.3
				C192.3,177.4,191.3,178.4,190.1,178.4z M172.8,174.1H188v-8h-15.2V174.1z"/>
		</g>
	</g>
	<g>
		<path class="st1" d="M130.3,222c-1.3,0-2.4-1-2.6-2.3l-2-16.3c-0.2-1.4,0.8-2.7,2.2-2.9c1.4-0.2,2.7,0.8,2.9,2.2l2,16.3
			c0.2,1.4-0.8,2.7-2.2,2.9C130.5,222,130.4,222,130.3,222z"/>
	</g>
	<g>
		<path class="st1" d="M124.7,177.7c-1.3,0-2.4-1-2.6-2.3l-0.3-2.7c-0.2-1.4,0.8-2.7,2.2-2.9c1.4-0.2,2.7,0.8,2.9,2.2l0.3,2.7
			c0.2,1.4-0.8,2.7-2.2,2.9C125,177.7,124.8,177.7,124.7,177.7z"/>
	</g>
	<g>
		<path class="st1" d="M123.2,165.5c-1.3,0-2.4-1-2.6-2.3l-5.4-42.8c-0.2-1.4,0.8-2.7,2.2-2.9c1.4-0.2,2.7,0.8,2.9,2.2l5.4,42.8
			c0.2,1.4-0.8,2.7-2.2,2.9C123.4,165.5,123.3,165.5,123.2,165.5z"/>
	</g>
</g>
<g>
	<g>
		<path class="st3" d="M70.4,333.4v-39.7h9.8v6.5c2.8-4.7,7.3-7.1,11.8-7.1c1.7,0,3.2,0.3,4.8,0.8l-1.8,9.1
			c-1.2-0.7-2.4-1.1-4.1-1.1c-5.7,0-10.6,4.7-10.6,17.5v14.1H70.4z"/>
		<path class="st3" d="M121.1,293c12.8,0,20.2,9,20.2,20.5c0,11.5-7.4,20.5-20.2,20.5c-12.8,0-20.2-9-20.2-20.5
			C101,302,108.4,293,121.1,293z M121.1,325.6c6.3,0,9.9-5.6,9.9-12.1c0-6.5-3.6-12.1-9.9-12.1c-6.3,0-9.9,5.6-9.9,12.1
			C111.2,320,114.8,325.6,121.1,325.6z"/>
		<path class="st3" d="M159.4,293.6v39.7h-9.8v-39.7H159.4z"/>
		<path class="st3" d="M186,293c4,0,7.9,2.1,9.6,4.3v-19.7h9.8v55.8h-9.8v-4.1c-1.1,2.1-4.7,4.7-9.6,4.7c-12,0-18.1-8.3-18.1-20.5
			C167.8,301.3,174,293,186,293z M187.3,325.6c5.1,0,9.1-4.3,9.1-12.1c0-7.9-4-12.1-9.1-12.1c-5.1,0-9.2,4.3-9.2,12.1
			C178.1,321.4,182.2,325.6,187.3,325.6z"/>
		<path class="st2" d="M230.8,278.2v45.7h23.4v9.5h-33.7v-55.2H230.8z"/>
		<path class="st2" d="M261.2,304c1.3-6.5,7-11,15.1-11c9.5,0,16.7,3.9,16.7,16.6v23.7h-8l-1-5c-2.8,3.4-6.5,5.7-12.2,5.7
			c-6.8,0-12.1-4.2-12.1-12.1c0-7.9,6.9-13,17-13h6.6v-1.7c0-4.4-3.3-5.8-6.9-5.8c-2.8,0-5.6,0.9-6.9,4.6L261.2,304z M274.1,325.6
			c4.5,0,9.2-3.1,9.2-8.2v-0.8h-6.5c-4.2,0-6.8,1.6-6.8,5.1C270,323.7,271.3,325.6,274.1,325.6z"/>
		<path class="st2" d="M320.9,334c-4.9,0-8.5-2.7-9.6-4.7v4.1h-9.8v-55.8h9.8v19.7c1.7-2.2,5.6-4.3,9.6-4.3c12,0,18.1,8.3,18.1,20.5
			C339.1,325.7,332.9,334,320.9,334z M319.6,301.3c-5.1,0-9.1,4.3-9.1,12.1c0,7.9,4,12.1,9.1,12.1c5.1,0,9.2-4.3,9.2-12.1
			C328.8,305.6,324.7,301.3,319.6,301.3z"/>
	</g>
	<path class="st3" d="M35.9,278.2H8.4l10.3,9.5h10.3h3.8c8.8,0,18.5,3.5,18.5,18.1c0,14.7-9.7,18.1-18.5,18.1h-3.8v-26.4l-10.3-9.9
		v45.7h17.3c13,0,25.7-8.3,25.7-27.6C61.6,286.4,48.9,278.2,35.9,278.2z"/>
	<circle class="st2" cx="38.9" cy="299.2" r="4.3"/>
</g>
</svg>
